<?xml version="1.0" encoding="UTF-8" standalone="no"?>
<!DOCTYPE svg PUBLIC "-//W3C//DTD SVG 1.1//EN" "http://www.w3.org/Graphics/SVG/1.1/DTD/svg11.dtd">
<svg version="1.1" xmlns="http://www.w3.org/2000/svg" xmlns:xlink="http://www.w3.org/1999/xlink" preserveAspectRatio="xMidYMid meet" viewBox="0 0 564.48 564.48" width="564.48" height="564.48"><defs><path d="M115.55 133.15C126.53 133.15 135.43 142.05 135.43 153.03C135.43 183.05 135.43 253.24 135.43 283.26C135.43 294.24 126.53 303.15 115.55 303.15C109.52 303.15 111.34 303.15 105.31 303.15C94.33 303.15 85.43 294.24 85.43 283.26C85.43 253.24 85.43 183.05 85.43 153.03C85.43 142.05 94.33 133.15 105.31 133.15C111.34 133.15 109.52 133.15 115.55 133.15Z" id="a1Uf3jpWLU"></path><path d="M160.43 83.15C160.43 110.74 138.02 133.15 110.43 133.15C82.83 133.15 60.43 110.74 60.43 83.15C60.43 55.55 82.83 33.15 110.43 33.15C138.02 33.15 160.43 55.55 160.43 83.15Z" id="bjrlhUieh"></path><path d="M410.32 262.74C404.83 272.25 392.66 275.51 383.15 270.02C357.15 255.01 296.37 219.91 270.37 204.9C260.86 199.41 257.6 187.25 263.09 177.74C266.1 172.52 265.2 174.09 268.21 168.88C273.7 159.37 285.86 156.11 295.37 161.6C321.37 176.61 382.15 211.71 408.15 226.72C417.66 232.21 420.92 244.37 415.43 253.88C412.42 259.09 413.33 257.52 410.32 262.74Z" id="b91dPLtnuJ"></path><path d="M303.13 375.21C308.62 384.72 305.36 396.88 295.85 402.37C269.85 417.38 209.07 452.47 183.06 467.49C173.55 472.98 161.39 469.72 155.9 460.21C152.89 454.99 153.8 456.56 150.79 451.35C145.3 441.84 148.55 429.68 158.06 424.18C184.07 409.17 244.85 374.08 270.85 359.07C280.36 353.58 292.52 356.84 298.01 366.35C301.02 371.56 300.12 369.99 303.13 375.21Z" id="di7Q1DBLs"></path><path d="M160.42 483.15C160.42 510.75 138.02 533.15 110.42 533.15C82.83 533.15 60.42 510.75 60.42 483.15C60.42 455.56 82.83 433.15 110.42 433.15C138.02 433.15 160.42 455.56 160.42 483.15Z" id="a4yopXeUT"></path><path d="M506.84 283.15C506.84 310.75 484.43 333.15 456.84 333.15C429.24 333.15 406.84 310.75 406.84 283.15C406.84 255.56 429.24 233.15 456.84 233.15C484.43 233.15 506.84 255.56 506.84 283.15Z" id="bFdwxs4oJ"></path><path d="M251.26 328.61L173.41 373.56L173.41 283.66L173.41 193.77L251.26 238.71L329.11 283.66L251.26 328.61Z" id="bkZDzJdwq"></path><clipPath id="clipbFcuLu7MS"><use xlink:href="#bkZDzJdwq" opacity="1"></use></clipPath></defs><g><g><g><use xlink:href="#a1Uf3jpWLU" opacity="1" fill="#4682b4" fill-opacity="1"></use><g><use xlink:href="#a1Uf3jpWLU" opacity="1" fill-opacity="0" stroke="#4682b4" stroke-width="20" stroke-opacity="1"></use></g></g><g><g><use xlink:href="#bjrlhUieh" opacity="1" fill-opacity="0" stroke="#4682b4" stroke-width="60" stroke-opacity="1"></use></g></g><g><use xlink:href="#b91dPLtnuJ" opacity="1" fill="#4682b4" fill-opacity="1"></use><g><use xlink:href="#b91dPLtnuJ" opacity="1" fill-opacity="0" stroke="#4682b4" stroke-width="20" stroke-opacity="1"></use></g></g><g><use xlink:href="#di7Q1DBLs" opacity="1" fill="#4682b4" fill-opacity="1"></use><g><use xlink:href="#di7Q1DBLs" opacity="1" fill-opacity="0" stroke="#4682b4" stroke-width="20" stroke-opacity="1"></use></g></g><g><g><use xlink:href="#a4yopXeUT" opacity="1" fill-opacity="0" stroke="#4682b4" stroke-width="60" stroke-opacity="1"></use></g></g><g><g><use xlink:href="#bFdwxs4oJ" opacity="1" fill-opacity="0" stroke="#4682b4" stroke-width="60" stroke-opacity="1"></use></g></g><g><use xlink:href="#bkZDzJdwq" opacity="1" fill="#242533" fill-opacity="0"></use><g clip-path="url(#clipbFcuLu7MS)"><use xlink:href="#bkZDzJdwq" opacity="1" fill-opacity="0" stroke="#4682b4" stroke-width="1340" stroke-opacity="1"></use></g></g></g></g></svg>
